<svg width="688" height="688" viewBox="0 0 688 688" fill="none" xmlns="http://www.w3.org/2000/svg">
  <path d="M688.006 343.324C688.141 254.466 653.791 169.022 592.188 104.984C530.584 40.9455 446.534 3.30934 357.736 0V44.064C434.89 47.6268 507.703 80.7832 561.043 136.642C614.383 192.501 644.146 266.765 644.146 344C644.146 421.235 614.383 495.499 561.043 551.358C507.703 607.217 434.89 640.373 357.736 643.936V688C446.597 684.184 530.554 646.205 592.09 581.985C653.625 517.766 687.987 432.266 688.006 343.324Z" fill="currentColor"/>
  <path d="M0.000423763 343.333C-0.119926 432.756 34.6768 518.692 96.9797 582.84C159.283 646.988 244.168 684.277 333.558 686.767V0.00874848C244.171 2.44956 159.274 39.7088 96.9635 103.843C34.6535 167.978 -0.140059 253.915 0.000423763 343.333Z" fill="currentColor"/>
</svg>