<?xml version="1.0" encoding="utf-8"?>
<!-- Generator: Adobe Illustrator 25.0.1, SVG Export Plug-In . SVG Version: 6.00 Build 0)  -->
<svg version="1.0" id="Layer_1" xmlns="http://www.w3.org/2000/svg" xmlns:xlink="http://www.w3.org/1999/xlink" x="0px" y="0px"
	 viewBox="0 0 809 521" style="enable-background:new 0 0 809 521;" xml:space="preserve">
<style type="text/css">
	.st0{fill:#00CCCC;}
	.st1{fill:#FFFFFF;}
	.st2{fill:none;}
</style>
<path class="st0" d="M170.3,273.9h72.1l11.4-11.4L242.4,251h-72.1c-6.3,0-11.4,5.1-11.4,11.4S164,273.9,170.3,273.9z"/>
<path class="st0" d="M170.3,208.8c-29.6-0.4-53.9,23.3-54.3,52.9c-0.4,29.6,23.3,53.9,52.9,54.3c0.5,0,1,0,1.5,0h29.9l22.9-22.9
	h-52.8c-17,0.3-31-13.2-31.3-30.2c-0.3-17,13.2-31,30.2-31.3c0.4,0,0.7,0,1.1,0h52.8l-22.9-22.9H170.3z"/>
<path class="st0" d="M266.2,316v-22.9h-17.2L226,316H266.2z"/>
<path class="st0" d="M102.6,194.8c-37.4,37.4-37.3,98,0.1,135.4c18,17.9,42.3,28,67.7,28h95.8v-22.9h-95.8
	c-40.2,0.5-73.2-31.8-73.7-72s31.8-73.2,72-73.7c0.6,0,1.1,0,1.7,0h95.8v-22.9h-95.8C144.9,166.6,120.5,176.7,102.6,194.8z"/>
<path class="st0" d="M248.9,231.7h17.2v-22.9H226L248.9,231.7z"/>
<path class="st1" d="M399.8,229.2l4.8-4.1c-9.8-9.6-23-15-36.8-14.9c-15.4,0-28.5,5-37.9,14.5c-9.5,9.6-14.7,23.2-14.5,38.2
	c0.1,14.1,4.8,26.9,13.4,36.1c9.4,10.1,22.9,15.4,39,15.4c13.7,0.1,27-5.3,36.8-14.9l-4.6-4.4c-8.7,8.3-20.2,12.9-32.1,12.9
	c-14,0-25.7-4.7-33.9-13.5c-7.4-8.1-11.6-19.3-11.7-31.7c-0.1-13.5,4.5-25.5,12.7-33.8c8.1-8.1,19.5-12.5,32.9-12.5
	C379.8,216.2,391.3,220.8,399.8,229.2z"/>
<path class="st1" d="M425.1,305.1V264h60.2v-6.4h-60.2v-40.8h66.4v-6.7h-73.4v101.6h72v-6.7L425.1,305.1L425.1,305.1z"/>
<path class="st1" d="M544.2,259.6l0.2-0.2l34.5-49.2h-7.5l-31.1,43.6l-0.4,0.5l-0.4-0.5l-30.9-43.6H501l34.5,49.2l0.2,0.2l-0.2,0.2
	l-37.3,51.9h8.4l33-46.7l0.4-0.5l0.4,0.5l33,46.7h8.4l-37.3-51.9L544.2,259.6z"/>
<path class="st0" d="M624.5,210.1h-6.7v101.6h6.7V210.1z"/>
<path class="st0" d="M727.9,224.1c-9.1-9.1-21.8-14-36.7-14c-35.4,0-51.3,26.3-51.3,52.4c0,14,4.6,27,12.8,36.5
	c9.3,10.7,22.6,16.3,38.5,16.3s29.2-5.6,38.5-16.2c8.2-9.5,12.8-22.3,12.9-36.3C742.6,247.4,737.4,233.7,727.9,224.1z M724.6,294.5
	c-8.1,9.4-19.7,14.3-33.5,14.3s-25.2-4.9-33.3-14.3c-7.2-8.3-11.2-19.6-11.2-31.9c-0.1-13.6,4.4-25.7,12.7-34
	c7.8-7.9,18.8-12,31.8-12c13.9,0,25.5,4.9,33.5,14c7.2,8.2,11.2,19.6,11.2,32C735.8,274.8,731.8,286.1,724.6,294.5z"/>
<path class="st0" d="M588.7,258.4c-2.9,0-5.2,2.3-5.2,5.2s2.3,5.2,5.2,5.2c2.9,0,5.2-2.3,5.2-5.2c0,0,0,0,0,0
	C593.8,260.7,591.5,258.4,588.7,258.4C588.7,258.4,588.7,258.4,588.7,258.4z"/>
<rect x="46" y="133" class="st2" width="717" height="255"/>
</svg>
