<?xml version="1.0" encoding="utf-8"?>
<!-- Generator: Adobe Illustrator 25.0.1, SVG Export Plug-In . SVG Version: 6.00 Build 0)  -->
<svg version="1.0" id="Layer_1" xmlns="http://www.w3.org/2000/svg" xmlns:xlink="http://www.w3.org/1999/xlink" x="0px" y="0px"
	 viewBox="0 0 1092 762" style="enable-background:new 0 0 1092 762;" xml:space="preserve">
<style type="text/css">
	.st0{fill:#6E45B7;}
	.st1{fill:#00D0C4;}
	.st2{fill:none;}
</style>
<path id="形状_1_拷贝_2" class="st0" d="M777.1,247.8c-0.3,19.2-2.2,38.4-5.9,57.3c-25.3,131.8-101,197.7-226.9,197.7h-79.9
	l0.2-1l19.2-90.9h55c68.3,0,109.6-38.8,124-116.4c1-5,1.9-10,2.5-15l109.5-63.2C776.4,226.8,777.1,237.3,777.1,247.8z M737,133.4
	l-98.2,56.7c-16.9-10-36.4-14.7-56-13.7H424.5l0.5-2.3l18.7-87.8H608c21-0.3,42,2.4,62.3,7.9c23.3,6.3,44.8,18.2,62.4,34.8
	C734.2,130.5,735.6,131.9,737,133.4z"/>
<path id="形状_1_拷贝" class="st1" d="M580.5,254.6l-14.5,90.8h-68l-33.3,156.5l-0.2,1H314.8L371,427l36.9-172.4L580.5,254.6z"
	/>
<path id="形状_1_拷贝_4" class="st1" d="M427.2,675.6l17-96.4h17.2l-17,96.4L427.2,675.6z M564.8,579.2l-3,17.2h-70.4
	c-5.1,0.2-9.3,3.9-10.4,8.8l-1.6,9h62l-3,17.2h-62.2l-7.8,44.2h-17.1l12.4-70.4c2.9-14.7,15.5-25.4,30.5-26L564.8,579.2L564.8,579.2
	z M554.6,675.6l17-96.4h17.2l-17,96.4H554.6z M692.1,579.3l-17,96.4l-14.9-13.2l-53.5-47.8l-10.8,61h-17.2l16.9-96.1l14.9,13.2
	l53.5,47.8l10.8-61.4L692.1,579.3z M711.6,605.2l-1.6,9h62l-3,17.2h-62l-3.2,18.2c-0.9,3.9,1.6,7.8,5.5,8.6c0.6,0.1,1.2,0.2,1.8,0.2
	h70.4l-3,17.2H708c-11.7,0.4-21.5-8.8-21.8-20.5c0,0,0,0,0,0c-0.1-1.8,0.1-3.7,0.5-5.5l7.8-44.3c2.9-14.7,15.5-25.4,30.5-26h70.4
	l-3,17.2H722C716.9,596.6,712.6,600.2,711.6,605.2z M895.5,579.3l-45.8,48.3l28.7,48.1h-21.8l-20.3-34l-32.3,34h-21.8l45.5-48.1
	L799,579.3h21.8l20.4,34.3l32.5-34.3h21.6"/>
<path id="形状_1_拷贝_3" class="st0" d="M261.6,579.3c21.7-0.8,39.9,16.1,40.7,37.8c0.1,3.4-0.2,6.9-1,10.2
	c-2.3,11.9-8.2,22.8-16.9,31.1c-1,1-2.1,1.9-3.3,2.9c-10.1,8.9-23,13.9-36.4,14.2h-48.2l17-96.4L261.6,579.3z M216.6,658.5h31
	c17.9-0.7,32.9-13.5,36.4-31c3.1-13.6-5.4-27.2-19-30.4c-2.1-0.5-4.3-0.7-6.5-0.6h-31L216.6,658.5z M299.8,675.6l17-96.4H334
	l-17,96.4L299.8,675.6z M349.6,627.4c-3.1,13.6,5.4,27.2,19,30.3c2.1,0.5,4.3,0.7,6.5,0.6h31l3.2-18.5h-31l3.1-17.2h48.2l-9.3,52.9
	h-48.2c-21.7,0.7-40-16.3-40.7-38c-0.1-3.4,0.2-6.8,1-10.2c5.5-27.3,28.9-47.2,56.7-48.2h48.2l-3,17.2h-48.2
	C368.3,597,353.2,609.9,349.6,627.4L349.6,627.4z"/>
<rect x="171" y="6" class="st2" width="750" height="750"/>
</svg>
