<svg viewBox="0 0 500 200" fill="none" xmlns="http://www.w3.org/2000/svg">
<g transform="translate(20, 25)">
<path d="M87.474 143.378C87.474 143.378 87.193 143.378 87.005 143.378C77.536 142.44 69.989 134.893 69.098 125.424C69.051 124.768 69.005 124.112 69.005 123.502V52.953H85.833V121.627C85.833 124.346 88.036 126.502 90.708 126.502H135.757C138.429 126.502 140.632 124.299 140.632 121.627V52.953H157.461V123.455C157.461 124.112 157.461 124.768 157.367 125.377C156.476 134.846 148.929 142.393 139.46 143.331C139.273 143.331 139.132 143.331 138.944 143.331H87.38L87.474 143.378Z" fill="#FFFFFF"/>
<path d="M296.354 144.222C296.354 144.222 296.073 144.222 295.886 144.222C286.229 143.284 278.541 135.596 277.604 125.94C277.557 125.284 277.51 124.627 277.51 123.971V70.3442C277.51 69.6411 277.51 68.9848 277.604 68.3285C278.541 58.7188 286.229 51.0311 295.839 50.0935C296.495 49.9998 297.151 49.9998 297.855 49.9998H338.356C338.356 49.9998 338.684 49.9998 338.825 49.9998C350.731 50.2342 361.138 57.5 365.404 68.6098C366.716 71.938 367.373 75.4538 367.373 79.0633C367.373 94.8138 354.575 107.846 338.872 108.127C338.684 108.127 338.543 108.127 338.356 108.127H307.558V90.923H339.95V90.8293C345.809 90.0324 350.216 85.0635 350.216 79.0633C350.216 73.0631 345.762 68.0473 339.95 67.2973V67.2035H299.636C296.917 67.2035 294.667 69.4067 294.667 72.1255V122.096C294.667 124.815 296.87 127.065 299.636 127.065H344.965V144.222H296.308H296.354Z" fill="#FFFFFF"/>
<path d="M383.638 143.378V126.549H432.718C438.484 126.549 443.219 121.815 443.219 116.049C443.219 110.283 438.531 105.548 432.718 105.548H408.014C404.874 105.548 401.827 105.033 398.92 104.001C391.186 101.283 384.951 95.048 382.232 87.3602C381.201 84.4539 380.685 81.36 380.685 78.2193C380.685 75.0786 381.201 72.0316 382.232 69.1252C384.951 61.3906 391.186 55.156 398.92 52.4372C401.827 51.4059 404.92 50.8902 408.014 50.8902H451.328V67.7189H408.014C402.248 67.7189 397.514 72.4066 397.514 78.2193C397.514 84.032 402.202 88.7197 408.014 88.7197H432.718C435.859 88.7197 438.906 89.2353 441.812 90.2666C449.547 92.9854 455.782 99.22 458.5 106.908C459.344 109.252 459.86 111.736 460 114.267V117.83C459.86 120.268 459.344 122.752 458.5 125.143C455.782 132.831 449.547 139.065 441.812 141.784C438.906 142.815 435.812 143.331 432.718 143.331H383.638V143.378Z" fill="#FFFFFF"/>
<path d="M174.99 143.378C174.99 143.378 174.99 68.0468 174.99 67.7187H191.819V143.378H174.99Z" fill="#FFFFFF"/>
<path d="M264.493 69.1332C263.556 59.711 256.055 52.1639 246.586 51.2732C245.977 51.2264 245.274 51.1795 244.618 51.1795H209.085C199.804 51.1795 192.256 58.7266 192.256 68.0082H247.758V143.667H264.587V71.102C264.587 70.3989 264.587 69.7426 264.493 69.0863V69.1332Z" fill="#FFFFFF"/>
<path d="M16.8287 126.549V51.8751H0V123.456C0 124.112 0 124.768 0.0938 125.378C0.9844 134.847 8.5315 142.394 18.0006 143.331C18.1412 143.331 18.3287 143.331 18.4694 143.331L55.6894 143.238V126.503H16.8287V126.549Z" fill="#FFFFFF"/>
</g>
</svg>
